<?xml version="1.0" standalone="no"?>
<!DOCTYPE svg PUBLIC "-//W3C//DTD SVG 20010904//EN"
 "http://www.w3.org/TR/2001/REC-SVG-20010904/DTD/svg10.dtd">
<svg version="1.0" xmlns="http://www.w3.org/2000/svg"
 width="468pt" height="447pt" viewBox="0 0 468 447"
 preserveAspectRatio="xMidYMid meet">
<metadata>
Created by potrace 1.8, written by Peter Selinger 2001-2007
</metadata>
<g transform="translate(0,447) scale(0.199149,-0.199149)"
fill="#000000" stroke="none">
<path d="M30 2145 l0 -75 170 0 170 0 0 -945 0 -945 -170 0 -170 0 0 -75 0
-75 749 0 c787 0 886 4 1044 44 246 63 418 224 463 435 38 183 -5 329 -137
463 -54 54 -87 76 -170 116 -107 52 -208 82 -272 82 -53 0 -46 14 16 29 94 24
211 73 277 117 147 96 227 285 190 445 -58 252 -288 412 -641 449 -60 6 -393
10 -810 10 l-709 0 0 -75z m1492 -99 c153 -58 249 -252 220 -442 -28 -182
-147 -312 -325 -360 -39 -10 -125 -14 -339 -14 l-288 0 0 421 0 420 343 -3
c300 -3 348 -6 389 -22z m-60 -936 c191 -20 309 -135 352 -343 49 -236 -35
-454 -208 -537 -91 -43 -160 -50 -503 -50 l-313 0 0 470 0 470 293 0 c160 0
331 -4 379 -10z"/>
</g>
</svg>
